<?xml version="1.0" standalone="no"?>
<!DOCTYPE svg PUBLIC "-//W3C//DTD SVG 20010904//EN"
 "http://www.w3.org/TR/2001/REC-SVG-20010904/DTD/svg10.dtd">
<svg version="1.0" xmlns="http://www.w3.org/2000/svg"
 width="100.000000pt" height="100.000000pt" viewBox="0 0 100.000000 100.000000"
 preserveAspectRatio="xMidYMid meet">
<metadata>
Created by potrace 1.10, written by Peter Selinger 2001-2011
</metadata>
<g transform="translate(0.000000,100.000000) scale(0.050000,-0.050000)"
fill="#000000" stroke="none">
<path d="M0 1000 l0 -1000 1000 0 1000 0 0 1000 0 1000 -1000 0 -1000 0 0
-1000z m724 408 c135 -62 318 -146 406 -187 88 -41 216 -100 285 -130 69 -31
125 -67 125 -81 0 -13 -56 -68 -125 -121 -160 -125 -154 -114 -155 -284 0
-171 -1 -171 -134 -55 l-103 90 -132 -70 -132 -70 -21 55 c-11 30 -42 127 -68
215 -26 88 -83 285 -128 438 -82 278 -90 312 -73 312 5 0 120 -51 255 -112z"/>
<path d="M720 1331 c0 -42 518 -494 547 -477 61 37 192 137 192 146 0 6 -119
63 -265 128 -145 64 -311 139 -369 164 -58 26 -105 44 -105 39z"/>
<path d="M585 1260 c6 -27 35 -131 65 -230 30 -99 70 -237 90 -306 45 -162 35
-157 177 -72 152 90 160 54 -78 349 -251 310 -267 326 -254 259z"/>
<path d="M893 1032 c20 -26 100 -130 177 -232 l140 -185 6 77 c7 74 0 84 -160
232 -165 154 -232 199 -163 108z"/>
</g>
</svg>
